<svg x="0px" y="0px" height="15.579px" width="88.47px" xmlns="http://www.w3.org/2000/svg">
<path fill="#66403d" d="M7.538,15.327v-1.365c-0.756,0.903-1.911,1.596-3.59,1.596c-2.1,0-3.947-1.197-3.947-3.422v-0.042
	c0-2.457,1.911-3.632,4.493-3.632c1.344,0,2.205,0.189,3.065,0.462v-0.21c0-1.533-0.966-2.373-2.729-2.373
	c-1.239,0-2.163,0.273-3.17,0.693L0.966,4.997c1.218-0.546,2.415-0.924,4.22-0.924c3.275,0,4.871,1.722,4.871,4.682v6.572H7.538z
	 M7.601,10.687c-0.651-0.252-1.554-0.441-2.541-0.441c-1.596,0-2.541,0.651-2.541,1.722v0.042c0,1.05,0.945,1.638,2.142,1.638
	c1.68,0,2.939-0.945,2.939-2.331V10.687z M12.705,0h2.541v15.327h-2.541V0z M18.186,4.241h2.541v11.086h-2.541V4.241z M22.911,9.847
	V9.805c0-3.149,2.436-5.795,5.753-5.795c2.1,0,3.401,0.777,4.43,1.911l-1.575,1.701c-0.777-0.819-1.596-1.386-2.876-1.386
	c-1.848,0-3.191,1.596-3.191,3.527v0.042c0,1.974,1.365,3.569,3.317,3.569c1.197,0,2.079-0.567,2.876-1.386l1.533,1.512
	c-1.092,1.218-2.373,2.079-4.535,2.079C25.346,15.579,22.911,12.997,22.911,9.847z M34.062,9.826V9.784
	c0-3.17,2.247-5.774,5.417-5.774c3.527,0,5.312,2.771,5.312,5.963c0,0.231-0.021,0.462-0.042,0.714h-8.146
	c0.273,1.806,1.554,2.813,3.191,2.813c1.239,0,2.121-0.462,3.002-1.323l1.491,1.323c-1.05,1.26-2.499,2.079-4.535,2.079
	C36.539,15.579,34.062,13.249,34.062,9.826z M42.271,9.007c-0.168-1.638-1.134-2.918-2.813-2.918c-1.554,0-2.646,1.197-2.876,2.918
	H42.271z M49.37,13.605v1.722h-2.541V0h2.541v6.089c0.819-1.155,1.974-2.079,3.758-2.079c2.625,0,5.165,2.079,5.165,5.753v0.042
	c0,3.674-2.52,5.753-5.165,5.753C51.301,15.558,50.146,14.634,49.37,13.605z M55.71,9.805V9.763c0-2.142-1.449-3.548-3.17-3.548
	s-3.233,1.428-3.233,3.548v0.042c0,2.142,1.512,3.548,3.233,3.548C54.283,13.354,55.71,11.989,55.71,9.805z M60.521,0h2.541v15.327
	h-2.541V0z M65.729,11.296V4.241h2.541v6.299c0,1.722,0.861,2.708,2.373,2.708c1.47,0,2.499-1.029,2.499-2.75V4.241h2.541v11.086
	h-2.541v-1.722c-0.714,1.05-1.743,1.953-3.464,1.953C67.178,15.558,65.729,13.878,65.729,11.296z M77.741,9.826V9.784
	c0-3.17,2.247-5.774,5.417-5.774c3.527,0,5.312,2.771,5.312,5.963c0,0.231-0.021,0.462-0.042,0.714h-8.146
	c0.273,1.806,1.554,2.813,3.191,2.813c1.239,0,2.121-0.462,3.002-1.323l1.491,1.323c-1.05,1.26-2.499,2.079-4.535,2.079
	C80.219,15.579,77.741,13.249,77.741,9.826z M85.951,9.007c-0.168-1.638-1.134-2.918-2.813-2.918c-1.554,0-2.646,1.197-2.876,2.918
	H85.951z"/>
</svg>