<svg x="0px" y="0px" height="22.513px" width="91.492px" xmlns="http://www.w3.org/2000/svg">
<path fill="#66403d" d="M60.188,8.715c-0.529,0-0.966,0.23-1.173,0.575c0.023,0.483,0.115,1.242,0.115,1.793
	c0,1.863-0.759,5.68-2.023,5.68c-0.322,0-0.598-0.299-0.644-0.92c1.288-1.656,1.816-3.564,1.816-4.599
	c0-0.989-0.437-1.748-1.609-1.748c-1.334,0-2.944,2.944-2.944,5.657c0,0.345,0,0.69,0.023,0.851
	c-0.368,0.322-0.874,0.368-1.104,0.368c-0.368,0-0.598-0.253-0.598-0.966c0-1.656,1.472-4.668,2.967-6.232
	c0.023-0.115,0.023-0.23,0.023-0.345c0-0.782-0.46-1.403-1.679-1.403c-1.817,0-3.519,1.38-3.542,2.805
	c0,0.414,0.069,0.92,0.506,1.288c-0.597,0.866-1.074,1.674-1.394,2.513c-1.276,1.641-2.409,2.5-2.77,2.5
	c-0.207,0-0.322-0.092-0.322-0.345c0-0.575,0.759-2.438,1.15-3.449c0.345-0.874,0.552-1.587,0.552-2.3
	c0-0.805-0.46-1.356-1.334-1.356c-0.897,0-2.323,0.736-3.978,2.253l0.552-2.162c1.793-2.966,2.299-4.3,2.299-5.312
	c0-1.173-0.506-1.633-1.495-1.633c-2.82,0-3.804,3.349-4.67,11.012c-1.239,1.895-2.982,3.177-4.254,3.177
	c-0.897,0-1.242-0.506-1.242-1.771c0-2.323,0.805-3.794,1.242-3.794c0.138,0,0.299,0.161,0.299,0.483
	c0,0.299-0.069,0.828-0.23,1.449c0.184,0.276,0.483,0.437,0.989,0.437c1.104,0,2.139-1.173,2.139-2.645
	c0-1.403-0.782-2.23-2.346-2.23c-2.242,0-4.782,2.903-5.217,6.098c-1.04,1.222-1.853,1.767-2.212,1.767
	c-0.184,0-0.276-0.069-0.276-0.529c0-0.598,0.299-2.046,1.104-4.944c0.184-0.644,0.253-1.219,0.253-1.518
	c0-0.805-0.851-1.862-2.415-1.862c-0.322,0-0.621,0.092-0.805,0.299l-0.069,1.333c-0.115-0.115-0.276-0.161-0.598-0.161
	c-1.938,0-4.26,2.563-4.945,5.433c-0.981,1.288-1.963,2.132-2.532,2.132c-0.207,0-0.322-0.092-0.322-0.345
	c0-0.575,1.104-6.692,1.725-8.922c3.173-0.621,4.921-2.323,4.921-3.91C24.123,1.771,22.881,0,20.926,0
	c-1.242,0-2.99,0.828-4.093,4.208c-1.748-0.207-3.542-0.851-8.187-1.725C6.876,2.162,6.14,2.116,5.013,2.116
	C1.725,2.116,0,4.507,0,7.083c0,2.07,1.449,3.771,2.852,3.771c1.242,0,1.863-0.736,1.863-1.563c-1.587-0.92-2.116-1.84-2.116-2.76
	c0-1.081,0.575-1.679,1.816-1.679c1.242,0,2.897,0.253,5.335,1.035C8.991,7.221,8.578,8.164,8.255,9.474
	C7.934,9.497,7.658,9.543,7.451,9.658C7.014,9.888,6.83,10.279,6.83,10.67c0,0.46,0.23,0.943,0.621,1.265
	C2,15.568,0.92,17.5,0.92,19.225c0,2,1.219,3.288,3.518,3.288c3.266,0,5.312-2.989,6.232-7.083c0.069-0.322,0.575-2.369,0.644-2.759
	c0.322,0.046,0.575,0.069,0.851,0.069c1.242,0,2.299-0.598,2.299-2c0-0.46-0.184-0.92-0.483-1.173
	c-0.575,0.184-1.173,0.23-2.185,0.23c0.253-1.449,0.414-2.185,0.759-3.22c1.081,0.322,2.415,0.552,3.449,0.621
	c-0.322,1.563-0.759,3.725-1.058,5.22c-0.345,1.793-0.828,4.3-0.828,5.174c0,1.196,0.437,1.771,1.771,1.771
	c1.305,0,3.054-1.141,4.335-2.45c0.269,1.414,1.102,2.151,2.176,2.151c0.805,0,1.862-0.575,2.598-2.667
	c-0.046,0.345-0.069,0.644-0.069,0.897c0,1.472,0.644,1.886,1.656,1.886c0.927,0,2.532-1.162,3.766-2.446
	c0.32,1.628,1.287,2.538,3.089,2.538c1.528,0,3.31-1.132,4.609-2.414c0.059,1.173,1.029,2.345,2.337,2.345
	c0.46,0,0.851-0.092,1.058-0.322c0.023-2.139,0.184-3.863,0.414-5.496c0.621-0.529,1.173-0.782,1.563-0.782
	c0.253,0,0.322,0.184,0.322,0.368c0,0.506-1.196,3.15-1.196,4.668c0,1.265,0.46,1.863,1.816,1.863c1.161,0,2.859-1.212,4.158-2.545
	c0.192,1.658,1.243,2.361,2.696,2.361c1.081,0,2.185-0.575,3.036-1.38c0.391,1.081,1.058,1.541,1.955,1.541
	c3.242,0,5.887-4.369,5.887-8.462C62.097,10.072,61.66,8.715,60.188,8.715z M20.535,2.253c0.552,0,1.242,0.782,1.242,1.196
	c0,0.483-0.736,0.851-2.208,0.989C19.868,2.875,20.19,2.253,20.535,2.253z M4.691,20.19c-0.506,0-0.851-0.345-0.851-1.288
	c0-0.851,0.667-2.069,3.312-4.53C6.439,18.305,5.542,20.19,4.691,20.19z M25.023,15.269c-0.276,0.345-0.598,0.575-0.92,0.575
	c-0.322,0-0.598-0.092-0.598-0.943c0-1.771,1.104-3.679,2.254-4.415L25.023,15.269z M90.618,13.154
	c-1.311,2-3.334,3.334-4.898,3.334c-0.896,0-1.104-0.575-1.104-1.609c3.15-0.713,4.277-2.208,4.277-4.139
	c0-1.61-0.874-2.369-2.46-2.369c-2.027,0-4.541,2.926-4.983,6.066c-1.036,1.291-2.126,2.167-2.63,2.167
	c-0.299,0-0.391-0.23-0.391-0.552c0-0.575,0.46-1.702,0.989-2.76c0.368-0.736,0.621-1.288,0.621-1.748
	c0-0.552-0.276-0.874-1.632-1.265c-0.391-0.115-0.828-0.276-1.081-0.414c0.299-0.506,0.782-0.851,1.334-1.15
	c0.046-0.138,0.069-0.299,0.069-0.46c0-0.621-0.529-0.989-1.311-0.989c-1.288,0-3.703,2.277-3.703,3.886
	c0,0.437,0.161,0.736,0.345,0.943c-0.374,0.901-0.794,1.472-1.352,2.263c-1.073,1.282-1.916,1.853-2.284,1.853
	c-0.184,0-0.276-0.069-0.276-0.529c0-0.598,0.299-2.046,1.104-4.944c0.184-0.644,0.253-1.219,0.253-1.518
	c0-0.805-0.851-1.862-2.415-1.862c-0.322,0-0.621,0.092-0.805,0.299l-0.069,1.333c-0.115-0.115-0.276-0.161-0.598-0.161
	c-2.3,0-5.151,3.61-5.151,7.06c0,2.093,0.966,3.173,2.277,3.173c0.805,0,1.862-0.575,2.598-2.667
	c-0.046,0.345-0.069,0.644-0.069,0.897c0,1.472,0.644,1.886,1.656,1.886c1.192,0,3.498-1.917,4.699-3.55
	c0.634-0.753,1.13-1.522,1.764-2.728c0.506,0.207,0.759,0.345,0.759,0.621c0,0.598-1.126,2.553-1.126,4.07
	c0,1.311,0.782,1.932,2.185,1.932c1.203,0,2.993-1.324,4.313-2.733c0.35,1.593,1.359,2.48,3.139,2.48c2.989,0,6.83-3.656,6.83-5.358
	C91.492,13.544,91.17,13.177,90.618,13.154z M85.858,10.785c0.276,0,0.46,0.276,0.46,0.759c0,0.69-0.276,1.403-1.564,1.633
	C84.915,11.567,85.536,10.785,85.858,10.785z M67.366,15.269c-0.276,0.345-0.598,0.575-0.92,0.575c-0.322,0-0.598-0.092-0.598-0.943
	c0-1.771,1.104-3.679,2.254-4.415L67.366,15.269z"/>
</svg>