<svg x="0px" y="0px" height="16px" width="16px" xmlns="http://www.w3.org/2000/svg">
<g>
	<polygon fill="#FFFFFF" points="1.288,10.861 5.241,9.397 9.395,5.242 10.859,1.288 10.859,1.288 8.991,0 5.276,1.706 1.706,5.277
		0,8.992 0.327,12.36 0.571,9.821 	"/>
	<polygon fill="#FFFFFF" points="0.429,13.406 3.021,16 1.072,11.582 	"/>
	<polygon fill="#FFFFFF" points="11.326,11.328 5.412,9.975 3.021,16 15.377,15.377 7.722,14.212 	"/>
	<polygon fill="#FFFFFF" points="11.326,11.328 15.377,15.377 14.467,7.435 15.301,5.03 15.546,12.017 16,3.019 9.972,5.414 	"/>
	<polygon fill="#FFFFFF" points="13.406,0.424 11.58,1.073 16,3.019 	"/>
</g>
</svg>